<?xml version="1.0" ?>
<!-- Uploaded to: SVG Repo, www.svgrepo.com, Generator: SVG Repo Mixer Tools -->
<svg width="800px" height="800px" viewBox="0 0 120 120" id="Layer_1" version="1.1" xml:space="preserve" xmlns="http://www.w3.org/2000/svg" xmlns:xlink="http://www.w3.org/1999/xlink">
<style type="text/css">
	.st0{fill:#FFE277;}
	.st1{fill:#FFAA5C;}
	.st2{fill:#FF8F9C;}
</style>
<g>
<g>
<path class="st0" d="M87.6,92.9h-6.4c-1,0-1.7,1-1.4,2.1l1.2,5.3c0.2,0.7,0.8,1.2,1.4,1.2h3.9c0.7,0,1.3-0.5,1.4-1.2L89,95    C89.3,93.9,88.6,92.9,87.6,92.9z"/>
<path class="st0" d="M38.8,92.9h-6.4c-1,0-1.7,1-1.4,2.1l1.2,5.3c0.2,0.7,0.8,1.2,1.4,1.2h3.9c0.7,0,1.3-0.5,1.4-1.2l1.2-5.3    C40.5,93.9,39.8,92.9,38.8,92.9z"/>
</g>
<path class="st1" d="M97.8,95.3H22.2c-2.9,0-5.3-2.4-5.3-5.3V53.8c0-2.9,2.4-5.3,5.3-5.3h75.6c2.9,0,5.3,2.4,5.3,5.3V90   C103.1,92.9,100.7,95.3,97.8,95.3z"/>
<path class="st0" d="M21.3,89.6V54.1c0-0.7,0.6-1.3,1.3-1.3h74.8c0.7,0,1.3,0.6,1.3,1.3v35.5c0,0.7-0.6,1.3-1.3,1.3H22.6   C21.9,90.9,21.3,90.3,21.3,89.6z"/>
<g>
<path class="st2" d="M47.3,40.4l1.3,1.8c0.3,0.4,0.8,0.4,1.2,0.1c2.7-2.4,6.3-3.8,10.2-3.8s7.5,1.4,10.2,3.8    c0.3,0.3,0.9,0.2,1.2-0.1l1.3-1.8c0.3-0.3,0.2-0.9-0.1-1.1c-3.4-2.9-7.8-4.6-12.6-4.6s-9.2,1.8-12.6,4.6C47,39.6,47,40,47.3,40.4z    "/>
<path class="st2" d="M42.3,34l1.3,1.8c0.3,0.4,0.8,0.4,1.1,0.1c4.2-3.4,9.4-5.5,15.2-5.5c5.7,0,11,2.1,15.1,5.5    c0.3,0.3,0.9,0.2,1.1-0.1l1.3-1.8c0.3-0.3,0.2-0.9-0.1-1.1c-4.8-3.9-10.9-6.3-17.5-6.3s-12.8,2.4-17.5,6.3    C42.1,33.2,42.1,33.7,42.3,34z"/>
<path class="st2" d="M60,18.5c-8.5,0-16.3,3-22.4,8c-0.3,0.3-0.4,0.8-0.1,1.1l1.3,1.8c0.3,0.4,0.8,0.4,1.2,0.1    c5.5-4.5,12.4-7.2,20-7.2s14.6,2.7,20,7.1c0.4,0.3,0.9,0.2,1.2-0.1l1.3-1.8c0.3-0.3,0.2-0.9-0.1-1.1C76.3,21.6,68.5,18.5,60,18.5z    "/>
</g>
<g>
<path class="st2" d="M41.9,61.5v2.9c-2.7,4.6-4.8,11.2-5.6,17.7h-4c0.9-6.8,3.6-13.6,5.8-17.4h-7.2v-3.2H41.9z"/>
<path class="st2" d="M50,71.3v-4.8h3.6v4.8H50z M50,82.2v-4.8h3.6v4.8H50z"/>
<path class="st2" d="M74.6,71.7c0,8-1.8,10.8-6.1,10.8c-4.2,0-6-3-6-10.8c0-8.4,2.5-10.4,6.1-10.4C72.5,61.3,74.6,63.6,74.6,71.7z     M66.3,71.5c0,5.2,0.2,7.8,2.3,7.8c2,0,2.3-2.6,2.3-7.8c0-5.4-0.3-7.2-2.3-7.2C66.8,64.4,66.3,66.4,66.3,71.5z"/>
<path class="st2" d="M89.1,71.7c0,8-1.8,10.8-6.1,10.8c-4.2,0-6-3-6-10.8c0-8.4,2.5-10.4,6.1-10.4C86.9,61.3,89.1,63.6,89.1,71.7z     M80.8,71.5c0,5.2,0.2,7.8,2.3,7.8c2,0,2.3-2.6,2.3-7.8c0-5.4-0.3-7.2-2.3-7.2C81.2,64.4,80.8,66.4,80.8,71.5z"/>
</g>
</g>
</svg>