<?xml version="1.0" encoding="iso-8859-1"?>
<!-- Uploaded to: SVG Repo, www.svgrepo.com, Generator: SVG Repo Mixer Tools -->
<svg version="1.1" id="Layer_1" xmlns="http://www.w3.org/2000/svg" xmlns:xlink="http://www.w3.org/1999/xlink" 
	 viewBox="0 0 512 512" xml:space="preserve">
<path style="fill:#FC870B;" d="M502.865,188.05C473.095,79.648,373.856,0,256,0C114.616,0,0,114.616,0,256
	c0,117.856,79.648,217.095,188.05,246.865L502.865,188.05z"/>
<path style="fill:#F8513A;" d="M512,256c0-23.529-3.191-46.309-9.135-67.95l-89.458-89.458L98.592,413.408l89.458,89.458
	C209.691,508.809,232.471,512,256,512C397.384,512,512,397.384,512,256z"/>
<path style="fill:#A0AD2F;" d="M463.547,205.862c0.358-2.991,0.324-6.078-0.17-9.202c-1.661-10.493-8.046-19.055-16.639-23.886
	c4.112-8.959,4.244-19.64-0.579-29.104c-4.823-9.465-13.541-15.636-23.206-17.576c1.142-9.79-2.034-19.989-9.544-27.501
	L242.313,242.314L98.592,413.408c7.512,7.512,17.711,10.687,27.501,9.545c1.94,9.665,8.112,18.383,17.576,23.206
	c9.464,4.823,20.145,4.69,29.104,0.579c4.831,8.593,13.394,14.977,23.886,16.639c3.123,0.495,6.211,0.53,9.202,0.17L321.4,321.401
	L463.547,205.862z"/>
<path style="fill:#BEC130;" d="M385.908,89.048c-1.94-9.665-8.111-18.383-17.576-23.205c-9.465-4.823-20.146-4.69-29.105-0.579
	c-4.831-8.593-13.394-14.977-23.887-16.639c-3.123-0.495-6.211-0.53-9.202-0.17L190.599,190.599L48.453,306.138
	c-0.358,2.991-0.324,6.078,0.17,9.202c1.662,10.493,8.046,19.055,16.639,23.887c-4.112,8.959-4.244,19.64,0.579,29.105
	c4.823,9.465,13.541,15.636,23.205,17.576c-1.142,9.79,2.034,19.989,9.544,27.5L413.408,98.592
	C405.897,91.08,395.698,87.906,385.908,89.048z"/>
<rect x="315.703" y="96.119" transform="matrix(-0.7071 -0.7071 0.7071 -0.7071 427.0112 547.1967)" style="fill:#63842C;" width="22.261" height="178.085"/>
<rect x="355.067" y="119.727" transform="matrix(-0.7071 -0.7071 0.7071 -0.7071 477.5149 615.3328)" style="fill:#F94C10;" width="22.261" height="178.085"/>
<rect x="284.219" y="64.641" transform="matrix(-0.7071 -0.7071 0.7071 -0.7071 395.5214 471.198)" style="fill:#FFD23E;" width="22.261" height="178.085"/>
<rect x="174.036" y="237.787" transform="matrix(-0.7071 -0.7071 0.7071 -0.7071 84.9951 688.8654)" style="fill:#F94C10;" width="22.261" height="178.085"/>
<rect x="197.638" y="277.145" transform="matrix(-0.7071 -0.7071 0.7071 -0.7071 97.4553 772.7424)" style="fill:#FA690E;" width="22.261" height="178.085"/>
<rect x="134.684" y="214.175" transform="matrix(-0.7071 -0.7071 0.7071 -0.7071 34.5128 620.7314)" style="fill:#81982D;" width="22.261" height="178.085"/>
<path style="fill:#FFE376;" d="M200.908,200.908c-73.894,73.894-73.894,193.7,0,267.593l267.593-267.593
	C394.607,127.014,274.802,127.013,200.908,200.908z"/>
<rect x="206.564" y="393.37" transform="matrix(0.7071 0.7071 -0.7071 0.7071 349.786 -35.4576)" style="fill:#FFD23E;" width="22.261" height="22.261"/>
<path style="fill:#FFF3AD;" d="M311.093,43.499L43.499,311.093c73.894,73.894,193.7,73.894,267.593,0
	S384.987,117.393,311.093,43.499z"/>
<rect x="96.376" y="283.177" transform="matrix(-0.7071 -0.7071 0.7071 -0.7071 -24.5828 578.433)" style="fill:#FFE376;" width="22.261" height="22.261"/>
<g>
	
		<rect x="268.471" y="142.555" transform="matrix(-0.7071 -0.7071 0.7071 -0.7071 368.637 460.0657)" style="fill:#FFD23E;" width="22.261" height="22.261"/>
	
		<rect x="276.347" y="276.346" transform="matrix(-0.7071 -0.7071 0.7071 -0.7071 287.4772 694.0297)" style="fill:#FFD23E;" width="22.261" height="22.261"/>
</g>
<rect x="276.341" y="229.125" transform="matrix(-0.7071 -0.7071 0.7071 -0.7071 320.8584 613.4145)" style="fill:#FFE376;" width="22.261" height="22.261"/>
</svg>