<?xml version="1.0" encoding="utf-8"?>

<!DOCTYPE svg PUBLIC "-//W3C//DTD SVG 1.1//EN" "http://www.w3.org/Graphics/SVG/1.1/DTD/svg11.dtd">
<!-- Uploaded to: SVG Repo, www.svgrepo.com, Generator: SVG Repo Mixer Tools -->
<svg height="800px" width="800px" version="1.1" id="_x32_" xmlns="http://www.w3.org/2000/svg" xmlns:xlink="http://www.w3.org/1999/xlink" 
	 viewBox="0 0 512 512"  xml:space="preserve">
<style type="text/css">
	.st0{fill:#000000;}
</style>
<g>
	<path class="st0" d="M455.718,151.364l-24.679-8.653l4.43-12.626l8.798,3.09l7.036-20.035l8.334-23.746l7.028-20.034L446.63,62.33
		L288.969,7.029L268.934,0l-7.028,20.035l-8.328,23.746l-7.022,20.035l8.798,3.089l-4.43,12.626l-24.672-8.653l-20.035-7.028
		l-7.028,20.035l-8.328,23.739l-7.029,20.035l12.814,4.492l-16.414,46.801l-12.813-4.492l-7.029,20.028l-8.327,23.739l-7.022,20.028
		l11.728,4.118l-18.452,52.593l-11.728-4.112l-7.028,20.028l-8.328,23.746l-7.028,20.042l11.728,4.106L72.096,483.742l-2.468,7.028
		h-33.38V512h25.937H92.13h228.92h15.052h41.563v-21.23h-34.112l16.289-46.442l13.898,4.872l7.029-20.028l8.327-23.74l7.022-20.027
		l-13.898-4.88l18.453-52.592l13.898,4.872l7.029-20.028l8.327-23.746l7.029-20.042l-12.813-4.492l16.414-46.78l12.812,4.499
		l7.029-20.042l8.328-23.746l7.028-20.036L455.718,151.364z M440.362,195.146l-12.814-4.499l-30.471,86.864l12.814,4.492
		l-8.328,23.746l-13.898-4.872l-32.502,92.649l13.898,4.879l-8.328,23.74l-13.898-4.872L321.05,490.77H92.13l50.865-144.999
		l-11.728-4.112l8.328-23.746l11.728,4.112l32.502-92.648l-11.728-4.119l8.328-23.739l12.813,4.492l30.464-86.865l-12.806-4.492
		l8.328-23.74l44.707,15.681l18.487-52.696l-8.804-3.089l8.327-23.746l157.66,55.302l-8.334,23.746l-8.804-3.089l-18.48,52.696
		l44.707,15.681L440.362,195.146z"/>
	<path class="st0" d="M381.708,109.477c1.782-5.086-0.892-10.664-5.985-12.447l-3.511-1.23c-5.094-1.79-10.657,0.899-12.447,5.985
		l-9.592,27.347l21.942,7.692L381.708,109.477z"/>
	<path class="st0" d="M376.373,198.801l-3.898-1.368c-5.66-1.983-11.845,0.996-13.829,6.649l-10.657,30.387l24.368,8.556
		l10.656-30.394C385.011,206.977,382.026,200.785,376.373,198.801z"/>
	<path class="st0" d="M335.75,314.616l-3.904-1.368c-5.66-1.984-11.846,0.995-13.822,6.655l-10.664,30.388l24.375,8.555
		l10.657-30.401C344.375,322.798,341.403,316.606,335.75,314.616z"/>
	<path class="st0" d="M332.288,92.144c1.79-5.086-0.885-10.67-5.979-12.454l-3.511-1.223c-5.093-1.79-10.656,0.885-12.453,5.985
		l-9.592,27.347l21.942,7.692L332.288,92.144z"/>
	<path class="st0" d="M326.158,192.685c1.976-5.653-1.002-11.852-6.649-13.835l-3.905-1.369c-5.66-1.984-11.845,0.995-13.829,6.655
		l-10.67,30.388l24.382,8.556L326.158,192.685z"/>
	<path class="st0" d="M293.496,435.067l-3.898-1.368c-5.653-1.984-11.845,0.995-13.829,6.655l-10.656,30.388l24.368,8.555
		l10.657-30.394C302.134,443.25,299.149,437.05,293.496,435.067z"/>
	<path class="st0" d="M285.534,308.5c1.976-5.653-1.009-11.845-6.655-13.829l-3.898-1.369c-5.66-1.984-11.845,0.995-13.836,6.649
		l-10.663,30.394l24.382,8.549L285.534,308.5z"/>
	<path class="st0" d="M269.273,172.733c1.997-5.653-0.989-11.845-6.642-13.829l-3.898-1.369c-5.66-1.983-11.852,0.989-13.829,6.649
		l-10.656,30.387l24.368,8.556L269.273,172.733z"/>
	<path class="st0" d="M236.632,415.122l-3.905-1.369c-5.66-1.983-11.845,0.988-13.829,6.642l-10.671,30.394l24.389,8.556
		l10.656-30.394C245.25,423.298,242.286,417.106,236.632,415.122z"/>
	<path class="st0" d="M228.65,288.554c1.984-5.653-0.988-11.852-6.641-13.836l-3.905-1.368c-5.66-1.977-11.845,0.995-13.822,6.655
		l-10.664,30.388l24.376,8.555L228.65,288.554z"/>
	<path class="st0" d="M179.755,395.177l-3.898-1.368c-5.66-1.991-11.846,0.988-13.829,6.648l-10.657,30.388l24.368,8.549
		l10.656-30.394C188.394,403.346,185.408,397.153,179.755,395.177z"/>
</g>
</svg>