<?xml version="1.0" encoding="utf-8"?>
<!-- Uploaded to: SVG Repo, www.svgrepo.com, Generator: SVG Repo Mixer Tools -->
<svg width="800px" height="800px" viewBox="0 0 1024 1024" class="icon"  version="1.1" xmlns="http://www.w3.org/2000/svg"><path d="M 711.907 905.272 c 14.9049 -14.9049 39.0258 -14.9049 53.9307 0 l 39.0258 -39.0258 c -14.9049 -14.9049 -14.9049 -39.0258 0 -53.9307 c 14.9049 -14.9049 39.0258 -14.9049 53.9307 0 L 897.707 773.404 c -14.9049 -14.9049 -14.9049 -39.0258 0 -53.9307 c 14.9049 -14.9049 39.0258 -14.9049 53.9307 0 L 998.969 672.142 c 7.85067 -7.85067 7.73689 -20.8213 -0.227555 -28.8995 L 381.497 26.1123 c -8.07822 -8.07822 -20.9351 -8.192 -28.8995 -0.227555 l -47.3315 47.3315 c 14.9049 14.9049 14.9049 39.0258 0 53.9307 c -14.9049 14.9049 -39.0258 14.9049 -53.9307 0 l -39.0258 39.0258 c 14.9049 14.9049 14.9049 39.0258 0 53.9307 c -14.9049 14.9049 -39.0258 14.9049 -53.9307 0 L 119.467 259.015 c 14.9049 14.9049 14.9049 39.0258 0 53.9307 c -14.9049 14.9049 -39.0258 14.9049 -53.9307 0 L 18.205 360.277 c -7.85067 7.85067 -7.73689 20.8213 0.227555 28.8995 l 617.131 617.131 c 8.07822 8.07822 20.9351 8.192 28.8995 0.227555 l 47.3315 -47.3315 c -14.7911 -14.9049 -14.7911 -39.0258 0.113778 -53.9307 Z" fill="#bee3fc" /><path d="M 500.28 254.464 c -2.048 0 -4.20978 -0.796445 -5.80267 -2.38933 c -3.18578 -3.18578 -3.18578 -8.41955 0 -11.6053 l 8.76089 -8.76089 c 3.18578 -3.18578 8.41955 -3.18578 11.6053 0 c 3.18578 3.18578 3.18578 8.41955 0 11.6053 l -8.76089 8.76089 c -1.59289 1.59289 -3.75467 2.38933 -5.80267 2.38933 Z M 260.779 493.853 c -2.048 0 -4.20978 -0.796445 -5.80267 -2.38933 c -3.18578 -3.18578 -3.18578 -8.41955 0 -11.6053 l 17.7493 -17.7493 c 3.18578 -3.18578 8.41955 -3.18578 11.6053 0 c 3.18578 3.18578 3.18578 8.41955 0 11.6053 l -17.7493 17.7493 c -1.59289 1.59289 -3.64089 2.38933 -5.80267 2.38933 Z m 39.936 -39.936 c -2.048 0 -4.20978 -0.796445 -5.80267 -2.38933 c -3.18578 -3.18578 -3.18578 -8.41955 0 -11.6053 l 17.7493 -17.7493 c 3.18578 -3.18578 8.41955 -3.18578 11.6053 0 c 3.18578 3.18578 3.18578 8.41955 0 11.6053 l -17.7493 17.7493 c -1.59289 1.59289 -3.64089 2.38933 -5.80267 2.38933 Z m 39.936 -39.8222 c -2.048 0 -4.20978 -0.796445 -5.80267 -2.38933 c -3.18578 -3.18578 -3.18578 -8.41955 0 -11.6053 l 17.7493 -17.7493 c 3.18578 -3.18578 8.41955 -3.18578 11.6053 0 c 3.18578 3.18578 3.18578 8.41955 0 11.6053 l -17.7493 17.7493 c -1.59289 1.59289 -3.75467 2.38933 -5.80267 2.38933 Z m 39.8222 -39.936 c -2.048 0 -4.20978 -0.796445 -5.80267 -2.38933 c -3.18578 -3.18578 -3.18578 -8.41955 0 -11.6053 l 17.7493 -17.7493 c 3.18578 -3.18578 8.41955 -3.18578 11.6053 0 c 3.18578 3.18578 3.18578 8.41955 0 11.6053 L 386.389 371.768 c -1.70667 1.59289 -3.75467 2.38933 -5.91645 2.38933 Z m 39.936 -39.936 c -2.048 0 -4.20978 -0.796445 -5.80267 -2.38933 c -3.18578 -3.18578 -3.18578 -8.41955 0 -11.6053 l 17.7493 -17.7493 c 3.18578 -3.18578 8.41955 -3.18578 11.6053 0 c 3.18578 3.18578 3.18578 8.41955 0 11.6053 l -17.7493 17.7493 c -1.59289 1.59289 -3.64089 2.38933 -5.80267 2.38933 Z m 39.936 -39.8222 c -2.048 0 -4.20978 -0.796445 -5.80267 -2.38933 c -3.18578 -3.18578 -3.18578 -8.41955 0 -11.6053 l 17.7493 -17.7493 c 3.18578 -3.18578 8.41955 -3.18578 11.6053 0 c 3.18578 3.18578 3.18578 8.41955 0 11.6053 l -17.7493 17.7493 c -1.59289 1.59289 -3.75467 2.38933 -5.80267 2.38933 Z M 229.945 524.8 c -2.048 0 -4.20978 -0.796445 -5.80267 -2.38933 c -3.18578 -3.18578 -3.18578 -8.41955 0 -11.6053 l 8.76089 -8.76089 c 3.18578 -3.18578 8.41955 -3.18578 11.6053 0 c 3.18578 3.18578 3.18578 8.41955 0 11.6053 l -8.76089 8.76089 c -1.59289 1.59289 -3.75467 2.38933 -5.80267 2.38933 Z" fill="#ffffff" /><path d="M 642.617 416.483 c -36.6365 -36.6365 -96.0285 -36.6365 -132.665 0 c -20.2525 20.2525 -29.2409 47.4453 -27.1929 73.8418 c -26.3965 -2.16178 -53.5893 6.94045 -73.8418 27.1929 c -36.6365 36.6365 -36.6365 96.0285 0 132.665 c 19.2285 19.2285 44.1458 26.5102 69.9733 27.4205 l 187.961 -3.75467 l 3.072 -185.344 c -0.568889 -24.3485 -7.50933 -52.224 -27.3067 -72.0213 Z" fill="#d1525c" /><path d="M 442.936 609.792 l 6.144 -6.144 l 35.1573 35.1573 l 22.3005 -22.3005 l 5.23378 5.23378 l -28.3307 28.3307 l -40.5049 -40.2773 Z M 514.048 549.148 c 7.168 0.341333 13.8809 3.75467 20.1387 10.0124 c 6.144 6.144 9.44355 12.8569 9.89867 20.1387 c 0.455111 7.50933 -2.50311 14.336 -8.64711 20.48 c -6.144 6.144 -12.9707 8.98845 -20.5938 8.53333 c -7.168 -0.455111 -13.8809 -3.75467 -20.0249 -9.89867 c -6.144 -6.144 -9.55733 -12.8569 -10.0124 -20.0249 c -0.568889 -7.50933 2.27555 -14.336 8.53333 -20.5938 c 6.25778 -6.25778 13.0845 -9.10222 20.7075 -8.64711 Z m -20.8213 28.3307 c 0.455111 5.00622 3.072 9.89867 7.85067 14.6773 c 4.66489 4.66489 9.55733 7.28178 14.5635 7.85067 c 5.23378 0.455111 10.0124 -1.47911 14.336 -5.68889 c 4.32355 -4.32355 6.25778 -8.98845 5.80267 -14.1085 c -0.455111 -5.00622 -3.072 -10.0124 -7.85067 -14.7911 c -4.77867 -4.77867 -9.78489 -7.50933 -14.9049 -7.96445 c -5.12 -0.455111 -9.78489 1.47911 -14.1085 5.80267 c -4.32355 4.20978 -6.25778 8.98845 -5.68889 14.2222 Z M 516.437 536.291 l 6.71289 -6.71289 l 45.056 22.0729 l 0.113778 -0.113778 l -22.0729 -44.9422 l 6.71289 -6.71289 l 25.9413 54.9547 l -7.50933 7.50933 l -54.9547 -26.0551 Z M 557.17 495.559 l 29.0133 -29.0133 l 5.23378 5.23378 l -22.7555 22.8693 l 11.8329 11.8329 l 21.504 -21.504 l 5.23378 5.23378 l -21.504 21.504 l 12.8569 12.8569 l 23.8933 -23.8933 l 5.23378 5.23378 l -30.0373 30.0373 l -40.5049 -40.3911 Z" fill="#ffffff" /></svg>