<?xml version="1.0" encoding="iso-8859-1"?>

<!DOCTYPE svg PUBLIC "-//W3C//DTD SVG 1.1//EN" "http://www.w3.org/Graphics/SVG/1.1/DTD/svg11.dtd">
<!-- Uploaded to: SVG Repo, www.svgrepo.com, Generator: SVG Repo Mixer Tools -->
<svg version="1.1" id="_x36_" xmlns="http://www.w3.org/2000/svg" xmlns:xlink="http://www.w3.org/1999/xlink" 
	 viewBox="0 0 512 512"  xml:space="preserve">
<g>
	<path style="fill:none;" d="M283.094,63.649h-0.102c25.48,4.012,48.239,16.121,65.671,33.555l0.018-0.018
		C331.265,79.774,308.535,67.677,283.094,63.649z"/>
	<path style="fill:none;" d="M223.258,228.309h-0.102c25.48,4.012,48.239,16.121,65.671,33.555l0.018-0.018
		C271.429,244.435,248.699,232.337,223.258,228.309z"/>
	<g>
		<g>
			<g>
				<polygon style="fill:#3E4244;" points="164.895,37.842 164.895,247.836 78.243,247.836 78.243,161.266 116.993,161.266 
					116.993,126.226 65.381,126.226 65.381,37.842 				"/>
				<polygon style="fill:#3E4244;" points="380.298,37.805 446.629,37.805 446.629,126.246 395.038,126.246 395.038,161.254 
					433.731,161.254 433.731,247.852 347.133,247.852 347.133,37.805 387.668,37.805 				"/>
			</g>
			<rect x="104.874" style="fill:#F0EFEF;" width="302.253" height="264.656"/>
			<path style="fill:#43494D;" d="M512,253.772v205.626c0,16.902-15.336,30.753-33.968,30.753H33.968
				C15.336,490.151,0,476.3,0,459.398V253.772c0-16.9,15.336-30.753,33.968-30.753h444.063C496.664,223.019,512,236.872,512,253.772
				z"/>
			<path style="fill:#3F8DA5;" d="M25.631,249.708v65.117c0,4.592,4.146,8.348,9.213,8.348h442.313c5.067,0,9.213-3.757,9.213-8.348
				v-65.117H25.631z"/>
			<path style="fill:#ADBCBF;" d="M476.683,356.567v133.574H35.317V356.567c0-5.51,4.975-10.018,11.055-10.018h419.256
				C471.708,346.549,476.683,351.057,476.683,356.567z"/>
			<path style="opacity:0.1;fill:#040000;" d="M35.32,479.547v-23.492c0,5.509,4.975,10.014,11.055,10.014h419.256
				c6.08,0,11.055-4.505,11.055-10.014v23.492c0,5.509-4.975,10.014-11.055,10.014H46.375
				C40.295,489.561,35.32,485.056,35.32,479.547z"/>
			<path style="opacity:0.1;fill:#FFFFFF;" d="M476.686,356.563v23.492c0-5.509-4.975-10.014-11.055-10.014H46.375
				c-6.08,0-11.055,4.505-11.055,10.014v-23.492c0-5.509,4.975-10.014,11.055-10.014h419.256
				C471.711,346.549,476.686,351.054,476.686,356.563z"/>
			<g>
				<rect x="139.712" y="32.759" style="fill:#D6D7D7;" width="111.431" height="17.042"/>
				<rect x="139.712" y="70.531" style="fill:#D6D7D7;" width="232.577" height="17.042"/>
				<rect x="139.712" y="112.448" style="fill:#D6D7D7;" width="232.577" height="17.042"/>
				<rect x="139.712" y="151.601" style="fill:#D6D7D7;" width="232.577" height="17.042"/>
			</g>
			<circle style="fill:#AACBD3;" cx="328.852" cy="285.624" r="19.07"/>
			<circle style="fill:#CBD3AC;" cx="391.497" cy="285.624" r="19.07"/>
			<circle style="fill:#AACBD3;" cx="448.696" cy="285.624" r="19.07"/>
			<rect x="53.912" y="268.362" style="fill:#6FBED7;" width="132.54" height="38.451"/>
		</g>
		<path style="opacity:0.06;fill:#040000;" d="M512,253.772v205.626c0,16.902-15.336,30.753-33.968,30.753H256V0h151.126v37.842
			h39.493v88.384h-39.493v35.04h26.631v61.753h44.274C496.664,223.019,512,236.872,512,253.772z"/>
	</g>
</g>
</svg>