<?xml version="1.0" encoding="iso-8859-1"?>
<!-- Uploaded to: SVG Repo, www.svgrepo.com, Generator: SVG Repo Mixer Tools -->
<svg height="800px" width="800px" version="1.1" id="Layer_1" xmlns="http://www.w3.org/2000/svg" xmlns:xlink="http://www.w3.org/1999/xlink" 
	 viewBox="0 0 503.467 503.467" xml:space="preserve">
<g transform="translate(1 17)">
	<g>
		<path style="fill:#FF7474;" d="M122.733,294.162l136.533,34.133h204.8c18.773,0,34.133,15.36,34.133,34.133v51.2H3.267v-51.2
			c0-18.773,15.36-34.133,34.133-34.133H63v-37.547l0,0l0,0l59.733-16.213l0,0V294.162z"/>
		<path style="fill:#FF7474;" d="M63,290.749c-17.92,5.12-35.84-5.973-40.96-24.747L4.12,200.296
			c-5.12-17.92,5.973-36.693,23.893-41.813l378.88-101.547c17.92-5.12,34.987-0.853,50.347,22.187l40.107,59.733l-41.813,12.8l0,0
			l-236.373,61.44l-5.973,10.24l-18.773,31.573l-73.387,19.627L63,290.749L63,290.749z"/>
	</g>
	<polygon style="fill:#AAB1BA;" points="456.387,151.655 467.48,181.522 237.08,243.816 218.307,225.896 214.04,223.336 
		220.013,213.096 	"/>
	<path style="fill:#F2EDDA;" d="M88.6,191.762c9.387,0,17.067,7.68,17.067,17.067s-7.68,17.067-17.067,17.067
		s-17.067-7.68-17.067-17.067S79.213,191.762,88.6,191.762"/>
</g>
<path style="fill:#51565F;" d="M499.2,434.896H4.267c-2.56,0-4.267-1.707-4.267-4.267v-51.2c0-21.333,17.067-38.4,38.4-38.4h21.333
	v-28.16c-8.533,0.853-16.213-0.853-23.04-5.12c-8.533-5.12-14.507-13.653-17.067-23.04l-17.92-65.707
	c-5.12-20.48,6.827-41.813,27.307-46.933l378.88-101.547c22.187-5.973,40.107,1.707,54.613,23.893l40.107,59.733
	c0.853,0.853,0.853,2.56,0.853,3.413c-0.853,0.853-1.707,2.56-2.56,2.56l-37.547,11.093l9.387,25.6l0,0c0,0.853,0,0.853,0,1.707
	c0,0.853,0,0.853-0.853,1.707l0,0l0,0c0,0.853-0.853,0.853-0.853,1.707c0,0-0.853,0.853-1.707,0.853l0,0l0,0l0,0l-230.4,62.293
	c-2.56,0.853-4.267-0.853-5.12-3.413c-0.853-2.56,0.853-4.267,3.413-5.12l226.133-61.44l-8.533-22.187l-231.253,60.587
	l-23.04,40.107c-0.853,0.853-1.707,1.707-2.56,1.707L128,294.096v12.8l133.12,33.28h203.947c21.333,0,38.4,17.067,38.4,38.4v51.2
	C503.467,433.189,501.76,434.896,499.2,434.896z M8.533,426.362h486.4v-46.933c0-16.213-13.653-29.867-29.867-29.867h-204.8h-0.853
	L128,317.136v29.013c0,2.56-1.707,4.267-4.267,4.267c-2.56,0-4.267-1.707-4.267-4.267v-34.133l0,0v-13.653l-51.2,13.653v34.133
	c0,2.56-1.707,4.267-4.267,4.267H38.4c-16.213,0-29.867,13.653-29.867,29.867V426.362z M421.547,76.496
	c-3.413,0-7.68,0.853-11.947,1.707L30.72,179.749c-16.213,4.267-25.6,20.48-21.333,36.693l17.92,65.707
	c1.707,7.68,6.827,14.507,13.653,17.92c6.827,4.267,14.507,5.12,22.187,3.413l130.56-34.987l23.04-40.107
	c0.853-0.853,1.707-1.707,2.56-1.707l235.52-61.44c0,0,0.853,0,0.853-0.853l35.84-11.093l-36.693-54.613
	C445.44,83.322,434.347,76.496,421.547,76.496z M89.6,247.162c-11.947,0-21.333-9.387-21.333-21.333
	c0-11.947,9.387-21.333,21.333-21.333s21.333,9.387,21.333,21.333C110.933,237.776,101.547,247.162,89.6,247.162z M89.6,213.029
	c-6.827,0-12.8,5.973-12.8,12.8c0,6.827,5.973,12.8,12.8,12.8s12.8-5.973,12.8-12.8C102.4,219.002,96.427,213.029,89.6,213.029z"/>
</svg>